<svg xmlns="http://www.w3.org/2000/svg" viewBox="0 0 800 500">
  <defs>
    <linearGradient id="bg" x1="0" y1="0" x2="1" y2="1">
      <stop offset="0" stop-color="#111319"/>
      <stop offset="1" stop-color="#1d2030"/>
    </linearGradient>
    <linearGradient id="acc" x1="0" y1="0" x2="1" y2="1">
      <stop offset="0" stop-color="#5E6AD2"/>
      <stop offset="1" stop-color="#8B93E8"/>
    </linearGradient>
  </defs>
  <rect width="800" height="500" fill="url(#bg)"/>
  <circle cx="140" cy="110" r="180" fill="url(#acc)" opacity="0.3"/>
  <circle cx="690" cy="430" r="150" fill="url(#acc)" opacity="0.18"/>
  <g stroke="#ffffff" stroke-opacity="0.05">
    <path d="M0 100h800M0 200h800M0 300h800M0 400h800"/>
    <path d="M100 0v500M200 0v500M300 0v500M400 0v500M500 0v500M600 0v500M700 0v500"/>
  </g>
  <!-- 文稿 / 代码意象 -->
  <g transform="translate(255 140)">
    <rect x="0" y="0" width="290" height="220" rx="16" fill="#0b0d14" fill-opacity="0.7" stroke="#ffffff" stroke-opacity="0.12"/>
    <rect x="30" y="34" width="120" height="14" rx="7" fill="#ffffff" opacity="0.26"/>
    <rect x="30" y="68" width="230" height="9" rx="4.5" fill="#8b93e8" opacity="0.55"/>
    <rect x="30" y="90" width="200" height="9" rx="4.5" fill="#ffffff" opacity="0.14"/>
    <rect x="30" y="112" width="215" height="9" rx="4.5" fill="#ffffff" opacity="0.14"/>
    <rect x="30" y="134" width="150" height="9" rx="4.5" fill="#ffffff" opacity="0.14"/>
    <rect x="30" y="168" width="80" height="20" rx="10" fill="url(#acc)" opacity="0.85"/>
  </g>
</svg>
